<svg width="320" height="320" xmlns="http://www.w3.org/2000/svg">
 <!-- Created with Method Draw - http://github.com/duopixel/Method-Draw/ -->

 <g>
  <title>background</title>
  <rect fill="none" id="canvas_background" height="322" width="322" y="-1" x="-1"/>
  <g display="none" overflow="visible" y="0" x="0" height="100%" width="100%" id="canvasGrid">
   <rect fill="url(#gridpattern)" stroke-width="0" y="0" x="0" height="100%" width="100%"/>
  </g>
 </g>
 <g>
  <title>Layer 1</title>
  <g stroke="null" id="svg_15">
   <path stroke="null" id="svg_5" fill="#92cdde" d="m203.875673,118.95576c0.549265,-10.341839 -3.898445,-20.408991 -12.252637,-27.729275c-8.354193,-7.320285 -19.843217,-11.21755 -31.645724,-10.736261c-27.436476,0 -43.898361,4.808192 -43.898361,38.465536c0.795765,-10.318361 10.173466,-18.535487 21.949181,-19.232768c11.775714,0.697282 21.153416,8.914407 21.949181,19.232768c0.340277,5.18618 -1.862144,10.252624 -6.055316,13.926853s-9.975195,5.604079 -15.893865,5.305915l65.847542,0l0,-19.232768zm0,0"/>
   <path stroke="null" id="svg_6" fill="#cdeef6" d="m247.774034,80.485528l0,57.698304l-109.745903,0c27.275715,0 49.385656,-19.373633 49.385656,-43.273728s-22.109941,-43.273728 -49.385656,-43.273728c-27.251601,0.049303 -49.32939,19.394763 -49.385656,43.273728c0,0 -43.898361,-57.698304 21.949181,-81.739265c79.675632,-29.090971 137.182378,14.424576 137.182378,67.314688zm0,0"/>
   <path stroke="null" id="svg_7" fill="#92cdde" d="m194.219319,37.355012l-2.636474,9.327611c-34.898447,-7.644274 -59.754715,-5.625209 -73.912365,6.01024c-1.867502,1.526038 -3.526015,3.2352 -4.938029,5.096965c-8.070182,4.171952 -14.589025,10.299579 -18.766121,17.645689c1.26197,-11.24807 6.968972,-21.7566 16.132326,-29.713124c17.008471,-14.039545 45.323772,-16.877975 84.120663,-8.367381zm0,0"/>
   <path stroke="null" id="svg_8" fill="#92cdde" d="m200.834618,50.833445l6.087468,-8.001132l16.464565,9.618732l-6.087468,8.001132l-16.464565,-9.618732zm0,0"/>
   <path stroke="null" id="svg_9" fill="#50b3c9" d="m275.210509,80.490223c-27.436476,0 -43.898361,4.808192 -43.898361,38.465536c0.795765,-10.318361 10.173466,-18.535487 21.949181,-19.232768c11.775714,0.697282 21.153416,8.914407 21.949181,19.232768c0.340277,5.18618 -1.862144,10.252624 -6.055316,13.926853s-9.975195,5.604079 -15.893865,5.305915l-252.415576,0l0,100.972033l318.263118,0l0,-120.204801c0.549265,-10.341839 -3.898445,-20.408991 -12.252637,-27.729275c-8.354193,-7.320285 -19.843217,-11.21755 -31.645724,-10.736261zm0,0"/>
   <path stroke="null" id="svg_10" fill="#92cdde" d="m319.10887,157.421296c-19.902162,0 -18.508904,24.04096 -38.411066,24.04096s-18.508904,-24.04096 -38.411066,-24.04096s-24.006916,24.04096 -43.898361,24.04096s-18.514263,-24.04096 -38.411066,-24.04096s-18.519621,24.04096 -38.411066,24.04096s-18.524979,-24.04096 -38.411066,-24.04096s-24.012275,24.04096 -43.898361,24.04096s-18.524979,-24.04096 -38.411066,-24.04096l0,81.739265l318.263118,0l0,-81.739265zm0,0"/>
   <g stroke="null" transform="matrix(0.6859118924801074,0,0,0.6010240041325576,-1647.5261802689158,-839.5163370056478) " id="svg_11" fill="#cdeef6">
    <path stroke="null" id="svg_12" d="m2867.183137,1722.731773c-29.015625,0 -26.984375,40 -56,40s-26.984375,-40 -56,-40s-35,40 -64,40s-26.992188,-40 -56,-40s-27,40 -56,40s-27.007812,-40 -56,-40s-35.007812,40 -64,40s-27.007812,-40 -56,-40l0,72l464,0l0,-72zm0,0"/>
    <path stroke="null" id="svg_13" d="m2827.183137,1434.731773c0,8.835938 -7.164062,16 -16,16s-16,-7.164062 -16,-16c0,-8.835937 7.164062,-16 16,-16s16,7.164063 16,16zm0,0"/>
    <path stroke="null" id="svg_14" d="m2483.183137,1578.731773c0,8.835938 -7.164062,16 -16,16s-16,-7.164062 -16,-16c0,-8.835937 7.164062,-16 16,-16s16,7.164063 16,16zm0,0"/>
   </g>
  </g>
  <text font-weight="bold" font-style="normal" stroke="#f4f4c6" transform="matrix(1.9849293624726587,0,0,1.5288296318683428,-12.699590996533594,-392.43819277115944) " xml:space="preserve" text-anchor="start" font-family="Oswald, sans-serif" font-size="39" id="svg_16" y="452.532599" x="8.278731" stroke-width="0" fill="#fcf4f4">睿深智能</text>
 </g>
</svg>